<svg width="24" height="24" viewBox="0 0 24 24" fill="none" xmlns="http://www.w3.org/2000/svg">
<g clip-path="url(#clip0_7014_31263)">
<path d="M20.4853 3.51469C18.2188 1.24823 15.2053 0 12 0C8.79464 0 5.78119 1.24823 3.51469 3.51469C1.24819 5.78114 0 8.79464 0 12C0 15.2053 1.24823 18.2188 3.51469 20.4853C5.78119 22.7518 8.79469 24 12 24C15.2053 24 18.2188 22.7518 20.4853 20.4853C22.7518 18.2188 24 15.2053 24 12C24 8.79469 22.7518 5.78119 20.4853 3.51469ZM8.43319 5.30869C9.52594 4.7243 10.7437 4.41872 12 4.41872C16.1803 4.41872 19.5812 7.81969 19.5812 12C19.5812 13.2564 19.2756 14.4741 18.6912 15.5668L8.43319 5.30869ZM15.5668 18.6912C14.4742 19.2756 13.2563 19.5812 12 19.5812C7.81969 19.5812 4.41881 16.1803 4.41881 12C4.41881 10.7437 4.72444 9.52589 5.30864 8.43333L15.5668 18.6912Z" fill="#FF706C"/>
</g>
<defs>
<clipPath id="clip0_7014_31263">
<rect width="24" height="24" fill="white"/>
</clipPath>
</defs>
</svg>
