<svg width="64" height="64" viewBox="0 0 64 64" fill="none" xmlns="http://www.w3.org/2000/svg">
<path d="M42.2427 46.8491C42.2427 52.198 37.8967 56.5341 32.5357 56.5341C27.1746 56.5341 22.8286 52.198 22.8286 46.8491C22.8286 41.5002 27.1746 37.1641 32.5357 37.1641C37.8967 37.1641 42.2427 41.5002 42.2427 46.8491Z" fill="#E4E4E4"/>
<path fill-rule="evenodd" clip-rule="evenodd" d="M32.5357 54.0076C36.4982 54.0076 39.7105 50.8026 39.7105 46.8491C39.7105 42.8956 36.4982 39.6906 32.5357 39.6906C28.5731 39.6906 25.3609 42.8956 25.3609 46.8491C25.3609 50.8026 28.5731 54.0076 32.5357 54.0076ZM32.5357 56.5341C37.8967 56.5341 42.2427 52.198 42.2427 46.8491C42.2427 41.5002 37.8967 37.1641 32.5357 37.1641C27.1746 37.1641 22.8286 41.5002 22.8286 46.8491C22.8286 52.198 27.1746 56.5341 32.5357 56.5341Z" fill="#2E3D53"/>
<path d="M59.0274 31.7039C60.1483 30.1137 60.7887 28.1829 60.7887 26.1222C60.7887 22.0494 58.2749 18.5609 54.7522 17.1492C54.5921 13.0927 51.2937 9.83128 47.2426 9.83128C46.0898 9.83128 45.001 10.0909 44.0242 10.5614C42.6312 9.24715 40.8379 8.5332 38.9324 8.5332C38.8204 8.5332 38.7243 8.5332 38.6122 8.5332C35.9542 8.64678 33.6965 10.2045 32.5437 12.4599C31.3748 10.2207 29.1331 8.64678 26.4752 8.5332C26.3631 8.5332 26.267 8.5332 26.1549 8.5332C24.2495 8.5332 22.4562 9.24715 21.0631 10.5614C20.0864 10.0909 18.9816 9.83128 17.8447 9.83128C13.7937 9.83128 10.4952 13.0927 10.3511 17.1492C6.8125 18.5609 4.29863 22.0494 4.29863 26.1222C4.29863 28.1829 4.9391 30.1137 6.05994 31.7039C4.90708 33.3265 4.2666 35.3061 4.2666 37.3343C4.2666 42.6402 8.52578 46.9725 13.7777 46.9725H23.8812C27.7401 46.9725 31.0546 44.636 32.5437 41.2934C34.0328 44.636 37.3633 46.9725 41.2061 46.9725H51.3097C56.5456 46.9725 60.8208 42.6564 60.8208 37.3343C60.8208 35.3061 60.1963 33.3265 59.0274 31.7039Z" fill="#E4E4E4"/>
<path d="M11.63 35.4519C11.5339 35.4519 11.4538 35.4357 11.3577 35.4195C7.21066 34.2999 4.3125 30.4868 4.3125 26.122C4.3125 20.8161 8.57167 16.5 13.8076 16.5C18.0187 16.5 21.6694 19.2422 22.8863 23.3311C23.0465 23.8828 22.7422 24.4832 22.1978 24.6454C21.6534 24.8077 21.061 24.4994 20.9009 23.9477C19.9562 20.8161 17.042 18.6256 13.8076 18.6256C9.72453 18.6256 6.39405 21.9844 6.39405 26.1382C6.39405 29.5294 8.65173 32.515 11.8861 33.3912C12.4466 33.5373 12.7668 34.1214 12.6227 34.6893C12.5106 35.1436 12.0943 35.4519 11.63 35.4519Z" fill="#2E3D53"/>
<path d="M8.9314 27.1217C8.35497 27.1217 7.89062 26.6511 7.89062 26.067C7.89062 22.8056 10.5166 20.1445 13.735 20.1445C14.3114 20.1445 14.7758 20.6151 14.7758 21.1992C14.7758 21.7834 14.3114 22.2539 13.735 22.2539C11.6534 22.2539 9.97218 23.9576 9.97218 26.067C9.97218 26.6511 9.50783 27.1217 8.9314 27.1217Z" fill="#2E3D53"/>
<path d="M23.8716 46.9666H13.768C8.53213 46.9666 4.27295 42.6505 4.27295 37.3446C4.27295 35.008 5.10557 32.7689 6.6267 31.0165C7.01099 30.5783 7.66748 30.5297 8.0998 30.9191C8.53213 31.3085 8.58016 31.9738 8.19587 32.4119C7.01099 33.7749 6.37051 35.5273 6.37051 37.3608C6.37051 41.4984 9.68499 44.8734 13.784 44.8734H23.8876C27.9706 44.8734 31.3011 41.4984 31.3011 37.3608V36.7604C31.221 35.5922 30.7247 34.4888 29.9081 33.6613C28.0187 31.7466 24.9604 31.7466 23.087 33.6613C22.6867 34.0669 22.0142 34.0669 21.6139 33.6613C21.2136 33.2556 21.2136 32.5741 21.6139 32.1685C24.3039 29.4425 28.6912 29.4425 31.3812 32.1685C32.566 33.3692 33.2706 34.9594 33.3827 36.6469V36.7118V37.3446C33.3506 42.6505 29.0915 46.9666 23.8716 46.9666Z" fill="#2E3D53"/>
<path d="M11.4021 18.4926C10.8257 18.4926 10.3613 18.022 10.3613 17.4379C10.3613 13.2516 13.7238 9.86035 17.8389 9.86035C21.1534 9.86035 24.0355 12.0184 24.9962 15.2474C25.1564 15.7991 24.8521 16.3994 24.3077 16.5617C23.7633 16.7239 23.1709 16.4156 23.0108 15.864C22.3222 13.5761 20.1927 11.9697 17.8389 11.9697C14.8607 11.9697 12.4429 14.4198 12.4429 17.4379C12.4429 18.022 11.9625 18.4926 11.4021 18.4926Z" fill="#2E3D53"/>
<path d="M32.3079 25.8207C28.9934 25.8207 26.1113 23.6627 25.1505 20.4337C24.9904 19.882 25.2947 19.2816 25.8391 19.1194C26.3835 18.9571 26.9759 19.2654 27.136 19.8171C27.8245 22.105 29.9381 23.6951 32.3079 23.6951C32.8843 23.6951 33.3487 24.1657 33.3487 24.7498C33.3487 25.3339 32.8843 25.8207 32.3079 25.8207Z" fill="#2E3D53"/>
<path d="M32.3044 38.3391C31.728 38.3391 31.2636 37.8686 31.2636 37.2844V15.9797C31.2636 13.124 29.118 10.7874 26.364 10.6738C26.2839 10.6738 26.2199 10.6738 26.1398 10.6738C24.6988 10.6738 23.3377 11.2417 22.329 12.2802C21.9287 12.6859 21.2562 12.6859 20.8559 12.2802C20.4556 11.8746 20.4556 11.1931 20.8559 10.7874C22.2649 9.35953 24.1543 8.56445 26.1398 8.56445C26.2519 8.56445 26.348 8.56445 26.4601 8.56445C30.3189 8.72671 33.3452 11.9881 33.3452 15.9797V37.2844C33.3452 37.8686 32.8808 38.3391 32.3044 38.3391Z" fill="#2E3D53"/>
<path d="M53.4508 35.4437C52.9865 35.4437 52.5701 35.1354 52.442 34.6649C52.2979 34.097 52.6182 33.5291 53.1786 33.3668C56.413 32.4906 58.6707 29.505 58.6707 26.1138C58.6707 21.9762 55.3562 18.6012 51.2572 18.6012C48.0228 18.6012 45.1086 20.7917 44.1639 23.9233C44.0038 24.475 43.4113 24.7995 42.8669 24.621C42.3225 24.4588 42.0023 23.8584 42.1784 23.3067C43.3953 19.2178 47.046 16.4756 51.2572 16.4756C56.4931 16.4756 60.7522 20.7917 60.7522 26.0976C60.7522 30.4461 57.8541 34.2755 53.707 35.3951C53.6269 35.4437 53.5469 35.4437 53.4508 35.4437Z" fill="#2E3D53"/>
<path d="M56.1373 27.1207C55.5609 27.1207 55.0965 26.6502 55.0965 26.066C55.0965 23.9729 53.4153 22.2529 51.3337 22.2529C50.7573 22.2529 50.293 21.7824 50.293 21.1982C50.293 20.6141 50.7573 20.1436 51.3337 20.1436C54.5521 20.1436 57.1781 22.8046 57.1781 26.066C57.1781 26.6502 56.7138 27.1207 56.1373 27.1207Z" fill="#2E3D53"/>
<path d="M51.2959 46.9584H41.1923C35.9564 46.9584 31.6973 42.6423 31.6973 37.3364V36.6224C31.8093 34.9349 32.5139 33.3448 33.6988 32.1441C36.3888 29.4181 40.776 29.4181 43.466 32.1441C43.8663 32.5497 43.8663 33.2312 43.466 33.6369C43.0657 34.0425 42.3932 34.0425 41.9929 33.6369C40.1035 31.7222 37.0453 31.7222 35.1719 33.6369C34.3552 34.4644 33.8589 35.5678 33.7788 36.736V37.3364C33.7788 41.474 37.0933 44.849 41.1923 44.849H51.2959C55.3789 44.849 58.7094 41.474 58.7094 37.3364C58.7094 35.5191 58.0529 33.7667 56.884 32.3875C56.4998 31.9494 56.5478 31.2841 56.9801 30.8947C57.4124 30.5053 58.0689 30.5539 58.4532 30.992C59.9583 32.7444 60.807 34.9999 60.807 37.3202C60.791 42.6423 56.5318 46.9584 51.2959 46.9584Z" fill="#2E3D53"/>
<path d="M53.6851 18.4844C53.1087 18.4844 52.6443 18.0138 52.6443 17.4297C52.6443 14.4117 50.2265 11.9615 47.2483 11.9615C44.8946 11.9615 42.765 13.5517 42.0765 15.8395C41.9164 16.3912 41.3239 16.7157 40.7795 16.5373C40.2351 16.375 39.9149 15.7746 40.091 15.223C41.0517 12.0102 43.9339 9.83594 47.2483 9.83594C51.3794 9.83594 54.7259 13.2434 54.7259 17.4135C54.7259 18.0138 54.2455 18.4844 53.6851 18.4844Z" fill="#2E3D53"/>
<path d="M32.7551 25.8212C32.1787 25.8212 31.7144 25.3506 31.7144 24.7665C31.7144 24.1824 32.1787 23.7118 32.7551 23.7118C35.1089 23.7118 37.2385 22.1217 37.927 19.8338C38.0871 19.2821 38.6796 18.9576 39.224 19.1361C39.7684 19.2983 40.0886 19.8987 39.9125 20.4504C38.9518 23.6631 36.0696 25.8212 32.7551 25.8212Z" fill="#2E3D53"/>
<path d="M32.7551 38.3313C32.1787 38.3313 31.7144 37.8607 31.7144 37.2766V15.9719C31.7144 11.9803 34.7406 8.7189 38.5995 8.55664C38.6956 8.55664 38.8076 8.55664 38.9197 8.55664C40.9212 8.55664 42.7946 9.35171 44.2037 10.7796C44.604 11.1852 44.604 11.8667 44.2037 12.2724C43.8034 12.678 43.1309 12.678 42.7306 12.2724C41.7058 11.2339 40.3608 10.666 38.9197 10.666C38.8397 10.666 38.7596 10.666 38.6956 10.666C35.9575 10.7796 33.7959 13.1161 33.7959 15.9719V37.2766C33.7959 37.8607 33.3316 38.3313 32.7551 38.3313Z" fill="#2E3D53"/>
<path d="M37.0183 48.8104C36.7301 48.8104 36.4419 48.6806 36.2337 48.4372C35.257 47.3014 33.864 46.6523 32.3748 46.6523C30.9178 46.6523 29.5247 47.2852 28.564 48.3885C28.1797 48.8266 27.5232 48.8591 27.0909 48.4859C26.6586 48.0965 26.6266 47.4312 26.9948 46.9931C28.3558 45.4354 30.3093 44.543 32.3748 44.543C34.4564 44.543 36.4419 45.4678 37.8029 47.058C38.1712 47.4961 38.1231 48.1614 37.6908 48.5508C37.4987 48.7293 37.2585 48.8104 37.0183 48.8104Z" fill="black"/>
<path d="M19.4529 56.092C25.82 56.092 30.9815 50.8614 30.9815 44.4093C30.9815 37.9571 25.82 32.7266 19.4529 32.7266C13.0858 32.7266 7.92432 37.9571 7.92432 44.4093C7.92432 50.8614 13.0858 56.092 19.4529 56.092Z" fill="white"/>
<path d="M19.4478 57.1447C12.5146 57.1447 6.87842 51.4331 6.87842 44.4073C6.87842 37.3815 12.5146 31.6699 19.4478 31.6699C26.3809 31.6699 32.0171 37.3815 32.0171 44.4073C32.0171 51.4331 26.3809 57.1447 19.4478 57.1447ZM19.4478 33.7793C13.6515 33.7793 8.94396 38.5497 8.94396 44.4073C8.94396 50.2649 13.6515 55.0353 19.4318 55.0353C25.2121 55.0353 29.9196 50.2649 29.9196 44.4073C29.9196 38.5497 25.2281 33.7793 19.4478 33.7793Z" fill="black"/>
<path d="M45.6277 56.092C51.9948 56.092 57.1563 50.8614 57.1563 44.4093C57.1563 37.9571 51.9948 32.7266 45.6277 32.7266C39.2607 32.7266 34.0991 37.9571 34.0991 44.4093C34.0991 50.8614 39.2607 56.092 45.6277 56.092Z" fill="white"/>
<path d="M45.6226 57.1447C38.6894 57.1447 33.0532 51.4331 33.0532 44.4073C33.0532 37.3815 38.6894 31.6699 45.6226 31.6699C52.5558 31.6699 58.192 37.3815 58.192 44.4073C58.192 51.4331 52.5558 57.1447 45.6226 57.1447ZM45.6226 33.7793C39.8423 33.7793 35.1348 38.5497 35.1348 44.4073C35.1348 50.2649 39.8423 55.0353 45.6226 55.0353C51.4029 55.0353 56.1104 50.2649 56.1104 44.4073C56.1104 38.5497 51.4189 33.7793 45.6226 33.7793Z" fill="black"/>
<path fill-rule="evenodd" clip-rule="evenodd" d="M18.9998 40.145C18.6315 40.145 18.3433 39.8367 18.3433 39.4797C18.3433 39.1065 18.6475 38.8145 18.9998 38.8145C19.352 38.8145 19.6562 39.1227 19.6562 39.4797C19.6562 39.8367 19.352 40.145 18.9998 40.145Z" fill="white"/>
<path d="M18.9911 37.6436C17.9984 37.6436 17.1978 38.4549 17.1978 39.4609C17.1978 40.4669 17.9984 41.2782 18.9911 41.2782C19.9838 41.2782 20.7844 40.4669 20.7844 39.4609C20.7844 38.4549 19.9838 37.6436 18.9911 37.6436Z" fill="black"/>
<path d="M20.5816 39.2776C21.4747 39.2776 22.1988 38.5439 22.1988 37.6388C22.1988 36.7337 21.4747 36 20.5816 36C19.6884 36 18.9644 36.7337 18.9644 37.6388C18.9644 38.5439 19.6884 39.2776 20.5816 39.2776Z" fill="white"/>
<path fill-rule="evenodd" clip-rule="evenodd" d="M45.6648 40.145C45.2965 40.145 45.0083 39.8367 45.0083 39.4797C45.0083 39.1065 45.3125 38.8145 45.6648 38.8145C46.017 38.8145 46.3213 39.1227 46.3213 39.4797C46.3213 39.8367 46.0331 40.145 45.6648 40.145Z" fill="white"/>
<path d="M45.6571 37.6465C44.6644 37.6465 43.8638 38.4578 43.8638 39.4638C43.8638 40.4698 44.6644 41.2811 45.6571 41.2811C46.6498 41.2811 47.4504 40.4698 47.4504 39.4638C47.4504 38.4578 46.6498 37.6465 45.6571 37.6465Z" fill="black"/>
<path d="M47.2373 39.2776C48.1305 39.2776 48.8545 38.5439 48.8545 37.6388C48.8545 36.7337 48.1305 36 47.2373 36C46.3442 36 45.6201 36.7337 45.6201 37.6388C45.6201 38.5439 46.3442 39.2776 47.2373 39.2776Z" fill="white"/>
<path d="M41.0156 4.98436L40.4853 5.51469L41.0156 4.98435C38.6084 2.57725 35.4042 1.25 32 1.25C28.5957 1.25 25.3915 2.57725 22.9844 4.98435C20.5772 7.39147 19.25 10.5957 19.25 14C19.25 17.4042 20.5773 20.6085 22.9844 23.0156C25.3915 25.4227 28.5958 26.75 32 26.75C35.4042 26.75 38.6084 25.4227 41.0156 23.0156C43.4227 20.6085 44.75 17.4042 44.75 14C44.75 10.5958 43.4227 7.39151 41.0156 4.98436ZM38.4479 16.2628L29.7372 7.552C30.4573 7.2992 31.2198 7.16872 32 7.16872C35.7661 7.16872 38.8312 10.2339 38.8312 14C38.8312 14.7803 38.7007 15.5427 38.4479 16.2628ZM25.552 11.7373L34.2628 20.4479C33.5427 20.7007 32.7802 20.8312 32 20.8312C28.2339 20.8312 25.1688 17.7661 25.1688 14C25.1688 13.2198 25.2993 12.4574 25.552 11.7373Z" fill="#FF706C" stroke="black" stroke-width="1.5"/>
</svg>
