<svg width="50" height="50" viewBox="0 0 50 50" fill="none" xmlns="http://www.w3.org/2000/svg">
<path fill-rule="evenodd" clip-rule="evenodd" d="M0 24.7917C0 18.2165 2.61197 11.9107 7.26131 7.26131C11.9107 2.61197 18.2165 0 24.7917 0C31.3668 0 37.6727 2.61197 42.322 7.26131C46.9714 11.9107 49.5833 18.2165 49.5833 24.7917C49.5833 31.3668 46.9714 37.6727 42.322 42.322C37.6727 46.9714 31.3668 49.5833 24.7917 49.5833C18.2165 49.5833 11.9107 46.9714 7.26131 42.322C2.61197 37.6727 0 31.3668 0 24.7917ZM24.7917 8.5C25.3553 8.5 25.8958 8.72388 26.2943 9.1224C26.6928 9.52091 26.9167 10.0614 26.9167 10.625V24.7917C26.9167 25.3553 26.6928 25.8958 26.2943 26.2943C25.8958 26.6928 25.3553 26.9167 24.7917 26.9167C24.2281 26.9167 23.6876 26.6928 23.2891 26.2943C22.8906 25.8958 22.6667 25.3553 22.6667 24.7917V10.625C22.6667 10.0614 22.8906 9.52091 23.2891 9.1224C23.6876 8.72388 24.2281 8.5 24.7917 8.5ZM19.125 13.6907C19.125 13.1722 18.5867 12.835 18.139 13.09C15.5571 14.5582 13.5334 16.8393 12.3832 19.5778C11.2331 22.3163 11.0212 25.3583 11.7806 28.2298C12.5399 31.1012 14.2278 33.6409 16.5813 35.4529C18.9347 37.2649 21.8215 38.2474 24.7917 38.2474C27.7619 38.2474 30.6486 37.2649 33.0021 35.4529C35.3555 33.6409 37.0434 31.1012 37.8028 28.2298C38.5621 25.3583 38.3502 22.3163 37.2001 19.5778C36.05 16.8393 34.0263 14.5582 31.4443 13.09C30.9938 12.835 30.4583 13.175 30.4583 13.6907V17.187C30.4583 17.4052 30.5603 17.612 30.7275 17.7508C32.1708 18.9678 33.2051 20.5989 33.6905 22.4233C34.1758 24.2477 34.0887 26.1772 33.4409 27.9504C32.7931 29.7237 31.6159 31.2549 30.0688 32.3368C28.5218 33.4188 26.6795 33.999 24.7917 33.999C22.9038 33.999 21.0616 33.4188 19.5145 32.3368C17.9674 31.2549 16.7902 29.7237 16.1424 27.9504C15.4946 26.1772 15.4075 24.2477 15.8928 22.4233C16.3782 20.5989 17.4126 18.9678 18.8558 17.7508C18.9391 17.6822 19.0064 17.5961 19.0529 17.4987C19.0994 17.4013 19.124 17.2949 19.125 17.187V13.6907Z" fill="#898282"/>
</svg>
