<svg width="24" height="24" viewBox="0 0 24 24" fill="none" xmlns="http://www.w3.org/2000/svg">
<path d="M2.76758 13.3204C2.76758 18.4054 6.90759 22.5454 12.0001 22.5454C17.0926 22.5454 21.2326 18.4054 21.2326 13.3204C21.2326 8.22786 17.0926 4.08789 12.0001 4.08789C6.90759 4.08789 2.76758 8.22786 2.76758 13.3204ZM13.8451 15.9229C14.4451 15.9229 14.9326 16.4104 14.9326 17.0104C14.9326 17.6104 14.4451 18.0979 13.8451 18.0979H10.1551C9.78006 18.0979 9.42759 17.9029 9.22507 17.5804C9.03006 17.2579 9.01509 16.8604 9.18007 16.5229L12.0826 10.7104H10.1551C9.55507 10.7104 9.0676 10.2229 9.0676 9.62285C9.0676 9.02286 9.55507 8.53539 10.1551 8.53539H13.8451C14.2201 8.53539 14.5726 8.7304 14.7751 9.05289C14.9701 9.37538 14.9851 9.77286 14.8201 10.1104L11.9176 15.9229H13.8451Z" fill="#8962F4"/>
<path d="M5.13319 1.60391C3.49233 2.56219 2.08682 3.84727 0.954175 5.42363C0.603985 5.91197 0.715262 6.59244 1.20365 6.94327C1.39573 7.08078 1.61756 7.14739 1.83803 7.14739C2.17682 7.14739 2.51067 6.99005 2.7233 6.69379C3.67595 5.3676 4.85606 4.28741 6.23183 3.48363C6.7507 3.18027 6.92574 2.51399 6.62238 1.99447C6.31902 1.47423 5.65134 1.29913 5.13319 1.60391Z" fill="#8962F4"/>
<path d="M21.277 6.69379C21.4903 6.99005 21.8235 7.14739 22.1622 7.14739C22.3827 7.14739 22.6045 7.08078 22.7966 6.94327C23.285 6.59244 23.3963 5.91197 23.0461 5.42363C21.9135 3.84727 20.5079 2.56219 18.8671 1.60391C18.3482 1.29913 17.6806 1.47423 17.3779 1.99447C17.0745 2.51399 17.2496 3.18026 17.7684 3.48362C19.1442 4.28741 20.3243 5.3676 21.277 6.69379Z" fill="#8962F4"/>
</svg>
